<svg width="131" height="26" viewBox="0 0 131 26" fill="none" xmlns="http://www.w3.org/2000/svg">
<path d="M23.159 22.7778V8.26768H18V4H33.4769V8.26768H28.318V22.7778H23.159Z" fill="#222222"/>
<path d="M37.064 22.7778V4H44.3989C45.4518 4 46.4578 4.09484 47.4171 4.28451C48.3763 4.47419 49.2069 4.80612 49.9088 5.2803C50.6341 5.75449 51.2073 6.38279 51.6285 7.16519C52.0496 7.9476 52.2602 8.93154 52.2602 10.117C52.2602 11.3973 51.956 12.4879 51.3477 13.3889C50.7628 14.2898 49.979 15.0011 48.9964 15.5227L53.313 22.7778H47.8733L44.3989 16.5541H42.223V22.7778H37.064ZM42.223 12.9977H44.1181C45.1944 12.9977 46.0016 12.7724 46.5397 12.322C47.1012 11.8478 47.382 11.2195 47.382 10.4371C47.382 9.58354 47.0895 8.97896 46.5046 8.62332C45.9197 8.26768 45.1008 8.08986 44.048 8.08986H42.223V12.9977Z" fill="#222222"/>
<path d="M56.7365 22.7778V4H69.3356V8.05429H61.8954V11.3262H68.2827V15.1315H61.8954V18.7235H69.6866V22.7778H56.7365Z" fill="#222222"/>
<path d="M74.2497 22.7778V4H79.4438L83.8307 12.1797L85.8662 16.6608H86.0066C85.9364 16.1629 85.8662 15.6057 85.796 14.9893C85.7258 14.3491 85.6556 13.6971 85.5854 13.0332C85.5386 12.3694 85.4919 11.7055 85.4451 11.0417C85.3983 10.3778 85.3749 9.74951 85.3749 9.15678V4H90.1127V22.7778H85.059L80.4967 14.5625L78.4962 10.117H78.3559C78.4728 11.2076 78.6015 12.4405 78.7419 13.8157C78.9057 15.1671 78.9876 16.4355 78.9876 17.621V22.7778H74.2497Z" fill="#222222"/>
<path d="M95.533 22.7778V4H101.324C102.798 4 104.155 4.16597 105.395 4.4979C106.658 4.82983 107.746 5.36329 108.659 6.09827C109.571 6.83326 110.285 7.79349 110.799 8.97896C111.314 10.1407 111.571 11.5751 111.571 13.2822C111.571 14.9893 111.314 16.4474 110.799 17.6566C110.308 18.842 109.618 19.826 108.729 20.6084C107.84 21.3671 106.787 21.9242 105.57 22.2799C104.377 22.6118 103.078 22.7778 101.675 22.7778H95.533ZM100.692 18.7235H101.64C103.114 18.7235 104.248 18.3086 105.044 17.4787C105.863 16.6252 106.272 15.2264 106.272 13.2822C106.272 11.3855 105.863 10.0459 105.044 9.26347C104.225 8.45735 103.09 8.05429 101.64 8.05429H100.692V18.7235Z" fill="#222222"/>
</svg>
