<svg width="17" height="17" viewBox="0 0 17 17" fill="none" xmlns="http://www.w3.org/2000/svg">
<path d="M9.16752 1.14557L15.1675 3.93233C15.4174 4.04768 15.6277 4.22551 15.7748 4.44582C15.9219 4.66613 15.9999 4.92017 16 5.1794V11.8189C15.9999 12.0781 15.9219 12.3321 15.7748 12.5524C15.6277 12.7728 15.4174 12.9506 15.1675 13.0659L9.16752 15.8527C8.95912 15.9496 8.7293 16 8.49627 16C8.26324 16 8.03341 15.9496 7.82502 15.8527L1.82503 13.0659C1.57538 12.9491 1.36585 12.7698 1.22008 12.5482C1.0743 12.3266 0.998091 12.0716 1.00004 11.8119V5.1794C1.00018 4.92017 1.07818 4.66613 1.22525 4.44582C1.37231 4.22551 1.58263 4.04768 1.83253 3.93233L7.83252 1.14557C8.03994 1.04982 8.2684 1 8.50002 1C8.73163 1 8.9601 1.04982 9.16752 1.14557V1.14557Z" stroke="currentColor" stroke-linecap="round" stroke-linejoin="round"/>
<path d="M1.24078 4.42773L8.50077 7.79972L15.7608 4.42773" stroke="currentColor" stroke-linecap="round" stroke-linejoin="round"/>
<path d="M8.49939 15.9919V7.79883" stroke="currentColor" stroke-linecap="round" stroke-linejoin="round"/>
<path d="M4.75177 2.57617L12.2518 6.05962" stroke="currentColor" stroke-linecap="round" stroke-linejoin="round"/>
</svg>
